<?xml version="1.0" standalone="no"?><!DOCTYPE svg PUBLIC "-//W3C//DTD SVG 1.1//EN" "http://www.w3.org/Graphics/SVG/1.1/DTD/svg11.dtd">
<svg class="icon" width="20px" height="20.00px" viewBox="0 0 1024 1024" version="1.1"
  xmlns="http://www.w3.org/2000/svg">
  <path d="M841.728 524.0832c-0.1024-22.3232-5.9392-34.304-14.5408-39.424l-86.6304-50.3808c8.704 5.0176 14.5408 17.1008 14.5408 39.424L755.712 684.032l86.6304 50.2784-0.6144-210.2272z" fill="#951B00" />
  <path d="M842.3424 737.4848c-0.512 0-1.024-0.1024-1.536-0.4096l-86.6304-50.3808c-0.9216-0.512-1.536-1.536-1.536-2.6624l-0.6144-210.3296c-0.1024-19.1488-4.608-31.8464-13.0048-36.7616-1.4336-0.8192-1.9456-2.7648-1.1264-4.1984 0.8192-1.4336 2.7648-1.9456 4.1984-1.1264l86.6304 50.2784c10.6496 6.144 16.0768 20.2752 16.0768 41.984l0.6144 210.3296c0 1.1264-0.6144 2.1504-1.536 2.6624-0.4096 0.512-1.024 0.6144-1.536 0.6144zM758.784 682.3936l80.4864 46.7968-0.6144-205.1072c-0.1024-19.1488-4.608-31.8464-13.0048-36.7616L753.5616 445.44c3.072 7.2704 4.608 16.6912 4.7104 28.2624l0.512 208.6912z" fill="#4E0C00" />
  <path d="M799.6416 337.1008c-16.896-9.6256-41.3696-6.8608-71.5776 10.5472-27.8528 16.0768-55.7056 44.2368-75.4688 79.6672l86.6304 50.2784c19.6608-35.4304 47.5136-63.5904 75.4688-79.6672 30.208-17.408 54.6816-20.1728 71.5776-10.5472l-86.6304-50.2784z" fill="#B82200" />
  <path d="M739.2256 480.768c-0.512 0-1.024-0.1024-1.536-0.4096L651.0592 430.08c-1.4336-0.8192-1.9456-2.6624-1.1264-4.1984 19.0464-34.304 46.8992-63.6928 76.5952-80.896 18.944-10.9568 36.0448-16.4864 50.9952-16.4864 8.8064 0 16.7936 1.9456 23.6544 5.9392l86.6304 50.3808c1.4336 0.8192 1.9456 2.7648 1.1264 4.1984-0.8192 1.4336-2.6624 1.9456-4.1984 1.1264-5.9392-3.3792-12.9024-5.12-20.6848-5.12-13.824 0-29.9008 5.2224-47.9232 15.6672-28.672 16.5888-55.808 45.1584-74.3424 78.5408-0.4096 0.7168-1.024 1.2288-1.8432 1.4336-0.2048 0-0.512 0.1024-0.7168 0.1024z m-82.432-54.5792l81.3056 47.2064c18.944-33.0752 46.1824-61.44 75.0592-78.1312 19.456-11.264 37.0688-16.7936 52.3264-16.4864l-67.3792-39.1168c-5.9392-3.3792-12.8-5.12-20.5824-5.12-13.824 0-29.9008 5.2224-47.9232 15.6672-27.9552 16.1792-54.3744 43.8272-72.8064 75.9808z" fill="#4E0C00" />
  <path d="M814.592 397.9264c30.208-17.408 54.6816-20.1728 71.5776-10.5472 24.4736 13.9264 30.9248 43.008 31.1296 81.1008l0.6144 222.4128-75.5712 43.6224-0.6144-210.432c-0.1024-47.4112-26.3168-48.3328-50.176-34.6112-23.8592 13.7216-50.4832 45.2608-50.3808 92.672l0.6144 210.3296-75.5712 43.6224-1.024-347.9552 73.8304-42.5984 0.1024 32.0512c19.7632-35.4304 47.616-63.488 75.4688-79.6672z" fill="#FF3100" />
  <path d="M666.3168 839.168c-0.512 0-1.024-0.1024-1.536-0.4096-0.9216-0.512-1.536-1.536-1.536-2.6624l-1.024-347.9552c0-1.1264 0.6144-2.1504 1.536-2.6624l73.8304-42.5984c0.9216-0.512 2.1504-0.512 3.072 0 0.9216 0.512 1.536 1.536 1.536 2.6624l0.1024 20.7872c18.6368-30.1056 44.032-55.6032 70.8608-71.0656 18.944-10.9568 36.0448-16.4864 50.9952-16.4864 8.8064 0 16.7936 1.9456 23.6544 5.9392 28.5696 16.2816 32.5632 51.5072 32.6656 83.7632l0.6144 222.4128c0 1.1264-0.6144 2.1504-1.536 2.6624l-75.5712 43.6224c-0.9216 0.512-2.1504 0.512-3.072 0-0.9216-0.512-1.536-1.536-1.536-2.6624l-0.7168-210.432c-0.1024-32.4608-12.4928-39.2192-22.9376-39.2192-6.5536 0-14.336 2.56-22.6304 7.2704-23.6544 13.7216-48.9472 44.544-48.8448 90.0096l0.6144 210.3296c0 1.1264-0.6144 2.1504-1.536 2.6624l-75.5712 43.6224c-0.4096 0.3072-0.9216 0.4096-1.4336 0.4096z m2.048-349.184l0.9216 340.7872 69.4272-40.0384-0.6144-208.5888c-0.1024-48.128 26.7264-80.7936 51.9168-95.3344 9.216-5.3248 18.0224-8.0896 25.7024-8.0896 8.8064 0 16.0768 3.6864 20.992 10.752 5.3248 7.68 8.0896 19.2512 8.192 34.6112l0.6144 205.0048 69.4272-40.0384-0.6144-220.5696c-0.1024-43.2128-8.9088-66.6624-29.4912-78.4384-5.9392-3.3792-12.9024-5.12-20.6848-5.12-13.824 0-29.9008 5.2224-47.9232 15.6672-28.672 16.5888-55.808 45.1584-74.3424 78.5408-0.7168 1.2288-2.048 1.8432-3.4816 1.4336-1.3312-0.3072-2.2528-1.536-2.3552-2.9696l-0.1024-26.7264-67.584 39.1168z" fill="#4E0C00" />
  <path d="M666.3168 836.096l-86.6304-50.2784-1.024-347.9552 86.6304 50.3808z" fill="#951B00" />
  <path d="M665.2928 488.2432l-86.6304-50.3808 73.8304-42.5984 86.6304 50.2784z" fill="#DB2900" />
  <path d="M666.3168 839.168c-0.512 0-1.024-0.1024-1.536-0.4096L578.1504 788.48c-0.9216-0.512-1.536-1.536-1.536-2.6624l-1.024-347.9552c0-1.1264 0.6144-2.1504 1.536-2.6624s2.1504-0.512 3.072 0l86.6304 50.2784c0.9216 0.512 1.536 1.536 1.536 2.6624l1.024 347.5456v0.4096c0 1.7408-1.4336 3.072-3.072 3.072z m-83.5584-55.1936l80.4864 46.7968-0.9216-340.7872-80.4864-46.7968 0.9216 340.7872z" fill="#4E0C00" />
  <path d="M665.2928 491.3152c-0.512 0-1.024-0.1024-1.536-0.4096l-86.6304-50.2784c-0.9216-0.512-1.536-1.536-1.536-2.6624s0.6144-2.1504 1.536-2.6624l73.8304-42.5984c0.9216-0.512 2.1504-0.512 3.072 0l86.6304 50.2784c0.9216 0.512 1.536 1.536 1.536 2.6624s-0.6144 2.1504-1.536 2.6624l-73.8304 42.5984c-0.512 0.2048-1.024 0.4096-1.536 0.4096z m-80.4864-53.4528l80.4864 46.7968 67.6864-39.1168-80.4864-46.7968-67.6864 39.1168z" fill="#4E0C00" />
  <path d="M474.4192 674.0992l-86.6304-50.3808-24.6784-70.0416 86.6304 50.3808z" fill="#951B00" />
  <path d="M474.4192 677.1712c-0.512 0-1.024-0.1024-1.536-0.4096l-86.6304-50.3808c-0.6144-0.4096-1.1264-0.9216-1.3312-1.6384l-24.6784-70.0416c-0.4096-1.2288-0.1024-2.56 0.9216-3.3792 1.024-0.8192 2.3552-0.9216 3.4816-0.3072l86.6304 50.2784c0.6144 0.4096 1.1264 0.9216 1.3312 1.6384l24.576 69.7344c0.2048 0.4096 0.3072 0.8192 0.3072 1.3312 0 1.7408-1.4336 3.1744-3.072 3.1744z m-84.0704-55.5008l78.4384 45.568-21.504-61.1328-78.4384-45.568 21.504 61.1328z" fill="#4E0C00" />
  <path d="M325.12 597.7088L238.592 547.328l102.8096-59.392 86.6304 50.3808z" fill="#B82200" />
  <path d="M428.032 538.3168l-86.6304-50.3808-50.9952-143.7696 86.528 50.3808z" fill="#951B00" />
  <path d="M342.8352 273.7152l-86.528-50.2784 63.2832-36.5568 86.6304 50.2784z" fill="#DB2900" />
  <path d="M325.12 600.7808c-0.512 0-1.024-0.1024-1.536-0.4096l-86.6304-50.2784c-0.9216-0.512-1.536-1.536-1.536-2.6624s0.6144-2.1504 1.536-2.6624l102.912-59.392c0.9216-0.512 2.1504-0.512 3.072 0l86.6304 50.3808c0.9216 0.512 1.536 1.536 1.536 2.6624s-0.6144 2.1504-1.536 2.6624l-102.912 59.392c-0.4096 0.1024-0.9216 0.3072-1.536 0.3072z m-80.4864-53.4528l80.4864 46.7968 96.768-55.808-80.4864-46.7968-96.768 55.808z" fill="#4E0C00" />
  <path d="M428.032 541.3888c-0.512 0-1.024-0.1024-1.536-0.4096l-86.6304-50.3808c-0.6144-0.4096-1.1264-0.9216-1.3312-1.6384l-51.0976-143.7696c-0.4096-1.2288-0.1024-2.56 0.9216-3.3792s2.3552-0.9216 3.4816-0.3072l86.6304 50.2784c0.6144 0.4096 1.1264 0.9216 1.3312 1.6384l50.8928 143.4624c0.2048 0.4096 0.3072 0.8192 0.3072 1.3312 0.1024 1.7408-1.2288 3.1744-2.9696 3.1744z m-84.0704-55.5008l78.4384 45.568-47.8208-134.7584-78.4384-45.568 47.8208 134.7584zM342.8352 276.7872c-0.512 0-1.024-0.1024-1.536-0.4096l-86.6304-50.2784c-0.9216-0.512-1.536-1.536-1.536-2.6624s0.6144-2.1504 1.536-2.6624l63.3856-36.5568c0.9216-0.512 2.1504-0.512 3.072 0l86.6304 50.2784c0.9216 0.512 1.536 1.536 1.536 2.6624s-0.6144 2.1504-1.536 2.6624l-63.3856 36.5568c-0.4096 0.3072-1.024 0.4096-1.536 0.4096z m-80.4864-53.3504l80.4864 46.7968 57.2416-33.0752-80.4864-46.7968-57.2416 33.0752z" fill="#4E0C00" />
  <path d="M406.2208 237.1584l152.4736 388.1984-84.2752 48.64-24.6784-70.0416-147.0464 84.8896-24.6784 98.6112-84.2752 48.64 149.1968-562.3808 63.2832-36.5568z m-81.1008 360.5504l102.912-59.392-51.0976-143.7696-51.8144 203.1616" fill="#FF3100" />
  <path d="M193.7408 839.168c-0.6144 0-1.3312-0.2048-1.8432-0.6144-1.024-0.7168-1.4336-2.048-1.1264-3.2768L339.968 272.896c0.2048-0.8192 0.7168-1.4336 1.4336-1.8432l63.3856-36.5568c0.8192-0.4096 1.7408-0.512 2.56-0.2048s1.536 0.9216 1.8432 1.7408l152.4736 388.1984c0.512 1.4336 0 3.072-1.3312 3.7888l-84.2752 48.64c-0.8192 0.4096-1.7408 0.512-2.56 0.2048s-1.536-1.024-1.8432-1.8432l-23.4496-66.56-142.7456 82.432-24.4736 97.28c-0.2048 0.8192-0.7168 1.536-1.4336 1.9456l-84.2752 48.64c-0.512 0.3072-1.024 0.4096-1.536 0.4096z m151.7568-563.4048l-146.944 553.984 76.6976-44.3392 24.4736-97.28c0.2048-0.8192 0.7168-1.536 1.4336-1.9456l147.0464-84.8896c0.8192-0.4096 1.7408-0.512 2.56-0.2048s1.536 1.024 1.8432 1.8432l23.4496 66.56 78.7456-45.4656L404.6848 241.664l-59.1872 34.0992z m-20.3776 325.0176c-0.6144 0-1.3312-0.2048-1.8432-0.6144-1.024-0.7168-1.4336-2.048-1.1264-3.1744l51.8144-203.1616c0.3072-1.3312 1.536-2.2528 2.8672-2.3552 1.3312 0 2.56 0.7168 3.072 2.048l51.0976 143.7696c0.512 1.4336-0.1024 2.9696-1.3312 3.6864l-102.912 59.392c-0.512 0.2048-1.024 0.4096-1.6384 0.4096z m52.3264-195.6864l-47.5136 186.2656 94.3104-54.4768-46.7968-131.7888z" fill="#4E0C00" />
  <path d="M193.7408 836.096l-86.6304-50.2784 149.1968-562.3808 86.528 50.2784z" fill="#951B00" />
  <path d="M193.7408 839.168c-0.512 0-1.024-0.1024-1.536-0.4096L105.5744 788.48c-1.2288-0.7168-1.7408-2.1504-1.4336-3.4816l149.1968-562.3808c0.2048-0.9216 0.9216-1.6384 1.8432-2.048 0.9216-0.4096 1.8432-0.3072 2.7648 0.2048l86.6304 50.2784c1.2288 0.7168 1.7408 2.1504 1.4336 3.4816L196.7104 836.9152c-0.2048 0.9216-0.9216 1.6384-1.8432 2.048-0.4096 0.1024-0.8192 0.2048-1.1264 0.2048z m-83.0464-54.8864l81.1008 47.104 147.5584-556.2368-81.1008-47.104-147.5584 556.2368z" fill="#4E0C00" />
</svg>