<?xml version="1.0" standalone="no"?><!DOCTYPE svg PUBLIC "-//W3C//DTD SVG 1.1//EN" "http://www.w3.org/Graphics/SVG/1.1/DTD/svg11.dtd"><svg class="icon" width="20px" height="20.00px" viewBox="0 0 1024 1024" version="1.1" xmlns="http://www.w3.org/2000/svg"><path fill="#ffffff" d="M156.060444 819.470222c0-7.864889-6.357333-14.222222-14.208-14.222222h-0.014222a14.222222 14.222222 0 0 0-14.222222 14.193778 85.703111 85.703111 0 0 0 24.248889 59.975111 14.179556 14.179556 0 0 0 20.124444 0.341333 14.222222 14.222222 0 0 0 0.327111-20.110222 57.358222 57.358222 0 0 1-16.256-40.177778zM724.949333 705.706667a14.222222 14.222222 0 1 0-28.444444-0.028445 85.660444 85.660444 0 0 0 24.220444 59.960889 14.222222 14.222222 0 0 0 20.465778-19.768889 57.201778 57.201778 0 0 1-16.241778-40.163555zM213.816889 877.255111c-1.692444 0-3.271111 0.085333-4.750222 0.341333a14.222222 14.222222 0 0 0-7.594667 27.363556c3.214222 1.080889 5.959111 1.507556 8.32 1.507556 1.962667 0 3.655111-0.327111 5.105778-0.810667 7.352889-0.554667 13.141333-6.712889 13.141333-14.193778a14.193778 14.193778 0 0 0-14.222222-14.208z"  /><path fill="#ffffff" d="M986.567111 582.997333c0.014222-0.298667 0.085333-0.568889 0.085333-0.867555l-2.375111-509.198222a31.118222 31.118222 0 0 0-0.583111-5.617778 27.875556 27.875556 0 0 0 0.099556-11.022222 28.472889 28.472889 0 0 0-33.28-22.613334l-583.111111 111.388445a28.458667 28.458667 0 0 0-22.613334 33.28c0.028444 0.199111 0.113778 0.369778 0.156445 0.568889a29.44 29.44 0 0 0-0.654222 6.144l2.161777 478.961777c-34.389333-6.314667-88.803556-14.520889-139.633777-14.520889-94.108444 0-170.666667 76.544-170.666667 170.652445s76.558222 170.666667 170.666667 170.666667c55.651556 0 100.977778-18.901333 134.712888-56.120889 74.268444-81.976889 63.146667-224.853333 61.952-237.838223l-1.749333-386.631111 526.279111-100.551111 1.578667 340.551111c-34.389333-6.300444-88.846222-14.520889-139.690667-14.520889-94.108444 0-170.666667 76.558222-170.666666 170.666667 0 94.094222 76.558222 170.652444 170.666666 170.652445 55.651556 0 101.006222-18.901333 134.727111-56.120889 74.453333-82.176 63.089778-225.550222 61.937778-237.909334zM299.278222 896.611556c-22.812444 25.116444-53.048889 37.304889-92.458666 37.304888-62.734222 0-113.777778-51.029333-113.777778-113.777777 0-62.72 51.043556-113.763556 113.777778-113.763556 52.167111 0 110.549333 9.870222 140.928 15.786667 0.654222 39.168-3.541333 124.970667-48.469334 174.449778z m102.200889-644.266667l-0.256-55.808L927.502222 96l0.256 55.808-526.279111 100.536889z m480.896 530.488889c-22.812444 25.116444-53.034667 37.304889-92.458667 37.304889-62.734222 0-113.777778-51.029333-113.777777-113.763556s51.043556-113.777778 113.777777-113.777778c52.181333 0 110.549333 9.870222 140.928 15.786667 0.654222 39.168-3.541333 124.970667-48.469333 174.449778z"  /></svg>