<?xml version="1.0" standalone="no"?><!DOCTYPE svg PUBLIC "-//W3C//DTD SVG 1.1//EN" "http://www.w3.org/Graphics/SVG/1.1/DTD/svg11.dtd"><svg class="icon" width="20px" height="19.98px" viewBox="0 0 1025 1024" version="1.1" xmlns="http://www.w3.org/2000/svg"><path fill="#ffffff" d="M140.288 418.816c38.912 0 71.68-13.312 99.328-40.96 27.648-27.648 40.96-60.416 40.96-99.328 0-38.912-13.312-71.68-40.96-99.328-27.648-27.648-60.416-40.96-99.328-40.96-38.912 0-71.68 13.312-99.328 40.96-27.648 27.648-40.96 60.416-40.96 99.328 0 38.912 13.312 71.68 40.96 99.328 27.648 27.648 60.416 40.96 99.328 40.96z m209.92 209.92L233.472 512 1.024 744.448v139.264h1024V558.08L722.944 256 350.208 628.736z"  /></svg>