<?xml version="1.0" standalone="no"?><!DOCTYPE svg PUBLIC "-//W3C//DTD SVG 1.1//EN" "http://www.w3.org/Graphics/SVG/1.1/DTD/svg11.dtd"><svg class="icon" width="20px" height="20.00px" viewBox="0 0 1024 1024" version="1.1" xmlns="http://www.w3.org/2000/svg"><path d="M896 213.333333a85.333333 85.333333 0 0 0-85.333333-85.333333H213.333333a85.333333 85.333333 0 0 0-85.333333 85.333333v597.333334a85.333333 85.333333 0 0 0 85.333333 85.333333h597.333334a85.333333 85.333333 0 0 0 85.333333-85.333333z m-183.466667 298.666667L810.666667 413.866667v196.266666L712.533333 512l-100.266666 100.266667 100.266666 100.266666 98.133334-98.133333V810.666667l-98.133334-98.133334-98.133333 98.133334h-4.266667L512 712.533333 413.866667 810.666667h-4.266667l-98.133333-98.133334L213.333333 810.666667v-196.266667l98.133334 98.133333 100.266666-100.266666L311.466667 512 213.333333 610.133333V413.866667L311.466667 512l100.266666-100.266667L311.466667 311.466667 213.333333 409.6V213.333333l98.133334 98.133334L409.6 213.333333h4.266667L512 311.466667 610.133333 213.333333h4.266667l98.133333 98.133334L810.666667 213.333333v196.266667l-98.133334-98.133333-100.266666 100.266666z m-298.666666-100.266667L512 512l100.266667-100.266667L512 311.466667z m0 200.533334L512 712.533333l100.266667-100.266666L512 512z" /></svg>