<?xml version="1.0" standalone="no"?><!DOCTYPE svg PUBLIC "-//W3C//DTD SVG 1.1//EN" "http://www.w3.org/Graphics/SVG/1.1/DTD/svg11.dtd">
<svg class="icon" width="20px" height="20.00px" viewBox="0 0 1024 1024" version="1.1"
  xmlns="http://www.w3.org/2000/svg">
  <path d="M638.4 296.4c-1.7-50.3 11.5-86.3 32.2-111.5-53.1-29.9-114.5-49-179.3-55-200.2-18.7-352.2 165.9-351 336.9 7.4-1.4 14.7-2.2 21.5-2.1 50.9 0.9 92.3 41.6 90.4 90.4-1.9 46.4-29.6 77.5-72.7 84.6C236.8 759.1 351.1 826.8 491.3 832c26.5 1 51.7-0.1 75.7-3.3 1.4-50 38.6-64.9 66.7-64.4 21.6 0.4 40.6 10.5 53 25.7 93.6-53.3 150.2-156.6 155.6-309 0.6-17.5-0.5-34.2-2.3-50.6-13.1 3.5-26.7 6.1-41.6 6.6-68 2.5-157.2-54.9-160-140.6z" fill="#00A9DC" />
  <path d="M140.2 466.7c-34.7 6.5-70.5 31.4-68.4 92.8 1.7 49.9 53.6 83.3 93.1 81.8 5.1-0.2 9.8-0.9 14.5-1.7-21.9-45.6-35.8-98.5-39.2-158.7-0.3-4.7 0.1-9.5 0-14.2z" fill="#FFBA3B" />
  <path d="M252.1 555c2-48.8-39.5-89.5-90.4-90.4-6.9-0.1-14.2 0.7-21.5 2.1 0 4.7-0.3 9.4 0 14.1 3.4 60.2 17.3 113.1 39.2 158.7 43.1-7.1 70.9-38.1 72.7-84.5z" fill="#CAC134" />
  <path d="M566.6 835c1.2 37.2 39.9 62.1 69.4 61 38.4-1.5 63.6-26 65.1-64.4 0.6-15.7-5-30.2-14.5-41.7-35 19.9-75.1 33-119.7 38.8 0 2.1-0.4 4-0.3 6.3z" fill="#FFBA3B" />
  <path d="M633.7 764.2c-28.1-0.5-65.3 14.4-66.7 64.4 44.6-5.8 84.7-18.8 119.7-38.8-12.4-15.1-31.5-25.2-53-25.6z" fill="#CAC134" />
  <path d="M948.3 288.6c3.4-83.9-67.8-153.9-155.3-155.3-41-0.7-90.7 12.6-122.5 51.6 91.3 51.5 156.9 136 169.4 245.4 64.5-17.2 105.5-68.1 108.4-141.7z" fill="#FFBA3B" />
  <path d="M670.5 184.9c-20.6 25.3-33.9 61.2-32.2 111.5 2.9 85.7 92 143.1 160 140.6 14.9-0.6 28.5-3.2 41.6-6.6-12.4-109.6-78-194-169.4-245.5z" fill="#CAC134" />
</svg>