<?xml version="1.0" standalone="no"?><!DOCTYPE svg PUBLIC "-//W3C//DTD SVG 1.1//EN" "http://www.w3.org/Graphics/SVG/1.1/DTD/svg11.dtd"><svg class="icon" width="20px" height="20.00px" viewBox="0 0 1024 1024" version="1.1" xmlns="http://www.w3.org/2000/svg"><path d="M511.609097 961.619254M923.840836 337.518107c-22.539342-53.279461-54.80521-101.128235-95.89914-142.213979-41.09393-41.085744-88.950891-73.344448-142.240585-95.880721-55.177694-23.333428-113.785509-35.164894-174.192298-35.164894-60.406788 0-119.013581 11.831466-174.192298 35.164894-53.289694 22.536272-101.146655 54.794977-142.240585 95.880721-41.094954 41.086767-73.359798 88.934518-95.89914 142.213979-23.338544 55.168484-35.172057 113.765043-35.172057 174.161598 0 60.396555 11.833513 118.992091 35.172057 174.161598 22.540366 53.280484 54.80521 101.128235 95.89914 142.213979 41.09393 41.086767 88.950891 73.345472 142.240585 95.880721 55.178717 23.333428 113.784486 35.164894 174.192298 35.164894 90.549296 0 177.772846-26.901697 252.240885-77.797877 5.66707-3.873214 7.121188-11.607362 3.247974-17.275455-3.873214-5.665023-11.606339-7.120165-17.275455-3.247974-70.316485 48.060599-152.689564 73.463152-238.213403 73.463152-233.048777 0-422.646949-189.561333-422.646949-422.564062s189.598172-422.564062 422.646949-422.564062c233.047754 0 422.646949 189.561333 422.646949 422.564062 0 76.570933-20.692275 151.566998-59.838853 216.882586-3.52836 5.887081-1.616824 13.520945 4.27128 17.050328 5.884011 3.527336 13.520945 1.616824 17.050328-4.27128 41.460274-69.174476 63.375399-148.591223 63.375399-229.661633C959.013917 451.28315 947.180404 392.687614 923.840836 337.518107zM239.279688 362.118388l177.759543 274.968515 54.080709 0L471.119941 283.621593l-45.181015 0 0 243.021919c0 24.341385 0.759293 41.529859 2.281973 51.570539l-0.912789 0c-1.52268-3.497661-6.389524-11.637038-14.603603-24.416086L239.736083 283.621593l-57.275471 0 0 353.466334 45.181015 0L227.641627 388.589272c0-25.100678-0.60989-41.605583-1.825578-49.517787l1.369184 0C230.226498 346.679767 234.259348 354.360703 239.279688 362.118388zM638.98002 469.185892 638.98002 447.3864 541.251208 447.3864 541.251208 637.086903 643.265626 637.086903 643.265626 615.411231 565.744042 615.411231 565.744042 551.60502 633.590266 551.60502 633.590266 529.929348 565.744042 529.929348 565.744042 469.185892ZM884.157022 447.3864l-37.229926 143.898341c-1.959631 7.102768-3.143597 13.30912-3.551896 18.614963l-0.490164 0c-0.817622-7.348362-1.879813-13.388938-3.184529-18.124799l-39.188534-144.388505L776.386506 447.3864l-41.026392 143.286404c-2.286066 8.082072-3.63376 14.572904-4.041036 19.47147l-0.734734 0c-0.327458-6.53074-1.346671-13.021571-3.061732-19.47147l-38.699394-143.286404-27.064402 0 54.987359 189.700503 28.290323 0 38.576597-136.917346c1.794879-6.123464 2.938935-12.57234 3.429099-19.349697l0.490164 0c0.325411 6.858198 1.346671 13.390985 3.061732 19.594267l38.20923 136.672776 28.535917 0 53.149501-189.700503L884.157022 447.3864z" /></svg>