<?xml version="1.0" standalone="no"?><!DOCTYPE svg PUBLIC "-//W3C//DTD SVG 1.1//EN" "http://www.w3.org/Graphics/SVG/1.1/DTD/svg11.dtd"><svg class="icon" width="20px" height="20.00px" viewBox="0 0 1024 1024" version="1.1" xmlns="http://www.w3.org/2000/svg"><path d="M905.6 364.1l-225-33.2c-6.4 0-11.1-3.2-12.7-7.9l-98.3-203.9c-6.3-12.6-15.8-22.1-28.5-28.4-31.7-15.8-69.8-3.2-85.6 28.4l-99.8 202.2c-3.2 3.2-7.9 7.9-12.7 7.9l-225 33.2c-14.2 3.2-26.9 9.5-36.4 19-23.8 25.3-23.8 66.4 1.6 90.1l160 158c3.2 3.1 6.4 9.5 4.8 14.2l-38 222.8c-3.2 12.6 0 26.9 6.3 39.5 15.9 31.6 53.9 42.7 85.6 26.9L503.1 827c4.7-1.6 11.1-1.6 15.8 0l201.3 105.9c11.1 6.3 25.3 7.9 39.6 6.3 34.9-6.3 58.6-37.9 52.3-72.7l-38-222.8c0-4.7 1.6-11 4.8-14.2l161.6-158c11.1-9.4 17.4-22.1 19-36.3 4.7-34.8-19-66.4-53.9-71.1z m-182.2 218c-16.7 16.7-25.9 42.3-21.3 66.6l36.4 213.4-192.7-101.3c-21.2-12.1-48.6-12.1-69.7 0.2L283.4 862.3l34.9-213.4c4.5-24.2-3.1-49.9-21.3-66.6L142.2 431l215.5-33.3c25.8-3.1 47-18.2 57.7-40.9L511 163.1l94.1 195c12.2 21.3 33.3 37.8 57.7 40.9l215.5 31.8-154.9 151.3z" /></svg>